<svg xmlns="http://www.w3.org/2000/svg" width="640" height="900" viewBox="0 0 640 900">
  <rect width="640" height="900" fill="#eef2f7"/>
  <rect x="22" y="22" width="596" height="856" fill="#fff" stroke="#cbd5e1"/>
  <rect x="22" y="22" width="596" height="92" fill="#17365d"/>
  <text x="48" y="62" font-family="Arial" font-size="24" font-weight="700" fill="#fff">VOTRE ENTREPRISE</text>
  <text x="48" y="88" font-family="Arial" font-size="12" fill="#dbeafe">Coordonnées • SIRET • TVA intracommunautaire</text>
  <text x="462" y="64" font-family="Arial" font-size="28" font-weight="700" fill="#fff">DOCUMENT</text>
  <text x="470" y="89" font-family="Arial" font-size="13" fill="#dbeafe">N° DOC-2026-001</text>
  <rect x="48" y="142" width="250" height="122" fill="#f8fafc" stroke="#cbd5e1"/>
  <rect x="342" y="142" width="246" height="122" fill="#f8fafc" stroke="#cbd5e1"/>
  <text x="66" y="170" font-family="Arial" font-size="12" font-weight="700" fill="#17365d">ÉMETTEUR</text>
  <text x="66" y="201" font-family="Arial" font-size="17" font-weight="700" fill="#0f172a">Votre entreprise</text>
  <text x="66" y="228" font-family="Arial" font-size="12" fill="#475569">Adresse et informations légales</text>
  <text x="360" y="170" font-family="Arial" font-size="12" font-weight="700" fill="#17365d">CLIENT</text>
  <text x="360" y="201" font-family="Arial" font-size="17" font-weight="700" fill="#0f172a">Nom du client</text>
  <text x="360" y="228" font-family="Arial" font-size="12" fill="#475569">Adresse et coordonnées</text>
  <table/>
  <rect x="48" y="300" width="540" height="42" fill="#dbe7f5"/>
  <text x="66" y="326" font-family="Arial" font-size="12" font-weight="700" fill="#17365d">DÉSIGNATION</text>
  <text x="402" y="326" font-family="Arial" font-size="12" font-weight="700" fill="#17365d">QTÉ</text>
  <text x="475" y="326" font-family="Arial" font-size="12" font-weight="700" fill="#17365d">PRIX</text>
  <text x="546" y="326" font-family="Arial" font-size="12" font-weight="700" fill="#17365d">TOTAL</text>
  <g font-family="Arial" font-size="12" fill="#0f172a">
    <rect x="48" y="342" width="540" height="78" fill="#fff" stroke="#cbd5e1"/>
    <text x="66" y="372" font-weight="700">Prestation principale</text><text x="66" y="397" fill="#64748b">Description détaillée de la prestation.</text><text x="414" y="382">1</text><text x="478" y="382">950 €</text><text x="545" y="382">950 €</text>
    <rect x="48" y="420" width="540" height="78" fill="#f8fafc" stroke="#cbd5e1"/>
    <text x="66" y="450" font-weight="700">Prestation complémentaire</text><text x="66" y="475" fill="#64748b">Précisions et livrables associés.</text><text x="414" y="460">1</text><text x="478" y="460">650 €</text><text x="545" y="460">650 €</text>
  </g>
  <rect x="330" y="536" width="258" height="142" fill="#f8fafc" stroke="#94a3b8"/>
  <g font-family="Arial" font-size="12" fill="#334155"><text x="350" y="568">Sous-total HT</text><text x="548" y="568" text-anchor="end">1 600,00 €</text><text x="350" y="598">TVA</text><text x="548" y="598" text-anchor="end">320,00 €</text></g>
  <rect x="330" y="622" width="258" height="56" fill="#17365d"/>
  <text x="350" y="648" font-family="Arial" font-size="12" fill="#dbeafe">TOTAL TTC</text><text x="568" y="655" text-anchor="end" font-family="Arial" font-size="24" font-weight="700" fill="#fff">1 920,00 €</text>
  <rect x="48" y="716" width="540" height="96" fill="#fff" stroke="#cbd5e1"/>
  <text x="66" y="746" font-family="Arial" font-size="12" font-weight="700" fill="#17365d">CONDITIONS ET MENTIONS</text>
  <text x="66" y="773" font-family="Arial" font-size="12" fill="#475569">Conditions de paiement, validité, pénalités et informations réglementaires.</text>
  <line x1="48" y1="842" x2="588" y2="842" stroke="#94a3b8"/>
  <text x="318" y="864" text-anchor="middle" font-family="Arial" font-size="10" fill="#64748b">Modèle Classique Pro • AutoFacture</text>
</svg>
